<svg width="148" height="155" viewBox="0 0 148 155" fill="none" xmlns="http://www.w3.org/2000/svg">
<g id="Group 5075">
<path id="Vector" d="M74.2274 155.001C114.682 155.001 147.477 150.143 147.477 144.151C147.477 138.158 114.682 133.301 74.2274 133.301C33.7726 133.301 0.977539 138.158 0.977539 144.151C0.977539 150.143 33.7726 155.001 74.2274 155.001Z" fill="#84B7B4"/>
<path id="Vector_2" d="M134.648 84.1204C136.398 78.4589 138.201 72.6935 138.421 66.7281C138.64 60.6628 136.648 55.0359 132.778 50.3744C131.217 48.4897 133.951 45.8167 135.528 47.7205C139.905 52.9974 142.286 59.2051 142.259 66.0782C142.228 72.5974 140.24 78.9897 138.328 85.1589C137.601 87.5089 133.921 86.482 134.651 84.1243L134.648 84.1204Z" fill="#231F20"/>
<path id="Vector_3" d="M10.8479 88.3742C8.4287 82.9665 5.94025 77.4588 5.00564 71.5627C4.05564 65.5704 5.35948 59.7435 8.6364 54.6473C9.95947 52.5897 6.92486 50.2666 5.5864 52.3435C1.87872 58.1089 0.259492 64.5589 1.12103 71.3819C1.93641 77.8511 4.68256 83.955 7.32101 89.8473C8.32486 92.0934 11.8556 90.628 10.8479 88.3742Z" fill="#231F20"/>
<path id="Vector_4" d="M38.8762 146.033C29.4955 145.771 21.2993 143.975 16.2224 128.352C12.7263 117.591 13.8801 104.914 12.7071 96.6907C11.534 88.4677 1.76862 63.3831 0.599389 43.2331C-0.573685 23.0832 11.9263 2.114 32.2378 0.879385C52.5493 -0.355228 60.7531 6.63708 71.2992 7.04862C84.9838 7.58323 95.4684 -0.785998 113.876 0.060154C131.845 0.883229 140.83 20.6216 141.611 41.5908C142.299 60.1216 131.188 87.4177 131.453 96.6907C131.845 110.26 131.061 144.802 115.83 144.802C98.2146 144.802 94.3454 119.718 89.2684 114.783C79.9531 105.733 72.08 104.914 63.88 113.137C54.3724 122.671 53.7224 146.444 38.8801 146.033H38.8762Z" fill="#DEECED"/>
<path id="Vector_5" d="M43.6176 10.8209C36.5291 8.97086 30.6368 11.0862 25.8099 15.0978C21.7291 17.4285 17.9484 21.6785 16.2561 24.6631C12.2638 31.7131 9.5407 41.3247 13.6138 49.0593C17.0061 55.5016 25.1099 55.4785 27.7022 48.4862C29.9907 42.3131 27.9368 35.7054 31.9176 29.9247C35.7253 24.3939 41.1522 24.3824 46.4714 20.8824C52.3252 17.0285 49.0868 12.2555 43.6137 10.8286L43.6176 10.8209Z" fill="white"/>
<path id="Vector_6" d="M141.736 41.4941C141.025 22.425 133.559 4.35961 118.698 0.625C145.809 11.7288 137.244 55.1864 124.379 73.1479C120.813 78.1248 115.332 79.1364 108.456 83.9748C102.106 88.444 117.882 88.8171 122.852 103.209C125.817 111.798 129.471 133.044 117.375 136.713C113.409 137.917 107.917 138.109 104.256 136.459C101.909 135.402 98.6518 132.636 96.8018 129.302C100.663 137.005 106.202 144.702 115.963 144.702C131.198 144.702 131.979 110.159 131.586 96.5902C131.321 87.3171 142.432 60.021 141.744 41.4903L141.736 41.4941Z" fill="#B9E1EA"/>
<path id="Vector_7" d="M15.2158 101.714C19.4197 98.8329 16.4427 94.5791 13.6274 92.0945C14.8158 92.4329 16.5774 92.8329 17.135 91.2637C17.6466 89.8137 15.6966 88.9445 14.5658 88.6022C11.762 87.7522 8.98506 86.7945 7.42352 84.0753L4.4043 79.1406C5.67352 84.4445 4.36968 89.8522 5.83122 95.0791C6.88891 98.8521 10.5466 104.914 15.2158 101.714Z" fill="#231F20"/>
<path id="Vector_8" d="M131.915 97.8872C127.392 95.5334 129.834 90.9527 132.334 88.1488C131.196 88.6296 129.492 89.2373 128.75 87.7449C128.065 86.368 129.9 85.2681 130.977 84.795C133.657 83.6104 136.3 82.3296 137.523 79.4373L139.927 74.1758C139.307 79.595 141.253 84.8065 140.43 90.168C139.834 94.0411 136.938 100.499 131.915 97.8872Z" fill="#231F20"/>
<path id="Vector_9" d="M72.8579 60.0889C72.6925 60.0966 72.5271 60.1043 72.3579 60.1158C64.3041 60.6466 59.8156 64.5196 57.4733 67.6773C54.931 71.1004 54.3118 74.3888 54.2848 74.5273C54.1733 75.1504 54.5848 75.7466 55.2079 75.8619C55.831 75.9735 56.4271 75.5619 56.5425 74.9427C56.631 74.4619 58.8771 63.3042 72.5117 62.4042C78.0002 62.0465 81.6079 64.1658 83.6656 66.0119C86.8463 68.8658 88.0886 72.4581 88.1886 74.8696C88.2155 75.5004 88.7501 75.9927 89.3809 75.9657C90.0155 75.9388 90.504 75.4042 90.4771 74.7696C90.3194 71.0965 88.2963 67.0889 85.1925 64.3042C82.8694 62.2196 78.8617 59.8312 72.8579 60.085V60.0889Z" fill="#231F20"/>
<path id="Vector_10" d="M41.736 40.8629L45.2052 37.3937C46.0321 36.5668 46.0321 35.2283 45.2052 34.3975C44.3783 33.5706 43.036 33.5706 42.2091 34.3975L38.7399 37.8668L35.2706 34.3975C34.4437 33.5706 33.1014 33.5706 32.2745 34.3975C31.4476 35.2245 31.4476 36.5668 32.2745 37.3937L35.7437 40.8629L32.2745 44.3321C31.4476 45.159 31.4476 46.5014 32.2745 47.3283C33.1014 48.1552 34.4437 48.1552 35.2706 47.3283L38.7399 43.859L42.2091 47.3283C43.036 48.1552 44.3783 48.1552 45.2052 47.3283C46.0321 46.5014 46.0321 45.1629 45.2052 44.3321L41.736 40.8629Z" fill="#231F20"/>
<path id="Vector_11" d="M107.466 40.609L110.935 37.1398C111.762 36.3129 111.762 34.9705 110.935 34.1436C110.108 33.3167 108.765 33.3167 107.939 34.1436L104.469 37.6129L101 34.1436C100.173 33.3167 98.8309 33.3167 98.004 34.1436C97.1771 34.9705 97.1771 36.3129 98.004 37.1398L101.473 40.609L98.004 44.0783C97.1771 44.9052 97.1771 46.2436 98.004 47.0744C98.8309 47.9013 100.173 47.9013 101 47.0744L104.469 43.6051L107.939 47.0744C108.765 47.9013 110.108 47.9013 110.935 47.0744C111.762 46.2474 111.762 44.9052 110.935 44.0783L107.466 40.609Z" fill="#231F20"/>
</g>
</svg>
