<svg width="16" height="16" viewBox="0 0 16 16" fill="none" xmlns="http://www.w3.org/2000/svg">
<g id="sorting">
<path id="Vector" opacity="0.3" d="M8.34565 2.80672C8.15265 2.62172 7.84765 2.62172 7.65465 2.80672L3.82131 6.47339C3.67365 6.61472 3.62698 6.83139 3.70298 7.02105C3.77898 7.21072 3.96231 7.33472 4.16665 7.33472H11.8333C12.0373 7.33472 12.2213 7.21039 12.2976 7.02105C12.3736 6.83172 12.3266 6.61472 12.1793 6.47339L8.34565 2.80672Z" fill="#9FA4B0"/>
<path id="Vector_2" opacity="0.3" d="M11.8331 8.66797H4.16642C3.96209 8.66797 3.77842 8.7923 3.70242 8.98164C3.62642 9.17097 3.67342 9.38797 3.82076 9.5293L7.65409 13.196C7.75076 13.2883 7.87509 13.3346 7.99976 13.3346C8.12442 13.3346 8.24876 13.2883 8.34542 13.196L12.1788 9.5293C12.3261 9.38797 12.3731 9.1713 12.2971 8.98164C12.2211 8.7923 12.0371 8.66797 11.8331 8.66797Z" fill="#9FA4B0"/>
</g>
</svg>
